<svg xmlns="http://www.w3.org/2000/svg" style="display:none">
    <symbol id="ic-search" viewBox="0 0 24 24"><title>search</title><g stroke-linejoin="round" stroke-linecap="round" stroke-width="2" fill="none" stroke="currentColor"><path d="M19 11c0 2.21-.895 4.21-2.343 5.657A8 8 0 1 1 19 11z"></path><path d="M21 21l-4.343-4.343"></path></g></symbol>
    <symbol id="ic-video" viewBox="0 0 24 24"><title>video-camera</title><g fill="none"><path d="M15 10l4.553-2.276A1 1 0 0 1 21 8.618v6.764a1 1 0 0 1-1.447.894L15 14M5 18h8a2 2 0 0 0 2-2V8a2 2 0 0 0-2-2H5a2 2 0 0 0-2 2v8a2 2 0 0 0 2 2z" stroke="currentColor" stroke-width="2" stroke-linecap="round" stroke-linejoin="round"></path></g></symbol>
    <symbol id="ic-folder" viewBox="0 0 24 24"><title>folder</title><g fill="none"><path d="M3 7v10a2 2 0 0 0 2 2h14a2 2 0 0 0 2-2V9a2 2 0 0 0-2-2h-6l-2-2H5a2 2 0 0 0-2 2z" stroke="currentColor" stroke-width="2" stroke-linecap="round" stroke-linejoin="round"></path></g></symbol>
    <symbol id="ic-user" viewBox="0 0 24 24"><title>user</title><g stroke-linejoin="round" stroke-linecap="round" stroke-width="2" fill="none" stroke="currentColor"><path d="M12 15a6 6 0 1 0 0-12 6 6 0 0 0 0 12z"></path><path d="M3 20a10.208 10.208 0 0 1 3.804-3.66A10.708 10.708 0 0 1 12 15c1.824 0 3.616.462 5.196 1.34 1.58.877 2.892 2.14 3.804 3.66"></path></g></symbol>
    <symbol id="ic-menu" viewBox="0 0 20 20"><title>menu-alt-1</title><g fill="none"><path fill-rule="evenodd" clip-rule="evenodd" d="M3 5a1 1 0 0 1 1-1h12a1 1 0 1 1 0 2H4a1 1 0 0 1-1-1z" fill="currentColor"></path><path fill-rule="evenodd" clip-rule="evenodd" d="M3 10a1 1 0 0 1 1-1h6a1 1 0 1 1 0 2H4a1 1 0 0 1-1-1z" fill="currentColor"></path><path fill-rule="evenodd" clip-rule="evenodd" d="M3 15a1 1 0 0 1 1-1h12a1 1 0 1 1 0 2H4a1 1 0 0 1-1-1z" fill="currentColor"></path></g></symbol>
    <symbol id="ic-close" viewBox="0 0 20 20"><title>x</title><g fill="none"><path fill-rule="evenodd" clip-rule="evenodd" d="M4.293 4.293a1 1 0 0 1 1.414 0L10 8.586l4.293-4.293a1 1 0 1 1 1.414 1.414L11.414 10l4.293 4.293a1 1 0 0 1-1.414 1.414L10 11.414l-4.293 4.293a1 1 0 0 1-1.414-1.414L8.586 10 4.293 5.707a1 1 0 0 1 0-1.414z" fill="currentColor"></path></g></symbol>
    <symbol id="ic-crown" viewBox="0 0 24 24"><title>crown</title><g stroke-linejoin="round" stroke-linecap="round" stroke-width="2" fill="none" stroke="currentColor"><path d="M3 7v9h18V7l-4 3-5-6-5 6-4-3z"></path><path d="M3 20h18"></path></g></symbol>
    <symbol id="ic-left" viewBox="0 0 24 24"><title>chevron-left</title><g fill="none"><path d="M15 19l-7-7 7-7" stroke="currentColor" stroke-width="2" stroke-linecap="round" stroke-linejoin="round"></path></g></symbol>
    <symbol id="ic-right" viewBox="0 0 24 24"><title>chevron-right</title><g fill="none"><path d="M9 5l7 7-7 7" stroke="currentColor" stroke-width="2" stroke-linecap="round" stroke-linejoin="round"></path></g></symbol>
    <symbol id="ic-play" viewBox="0 0 20 20"><title>play</title><g fill="none"><path fill-rule="evenodd" clip-rule="evenodd" d="M10 18a8 8 0 1 0 0-16 8 8 0 0 0 0 16zM9.555 7.168A1 1 0 0 0 8 8v4a1 1 0 0 0 1.555.832l3-2a1 1 0 0 0 0-1.664l-3-2z" fill="currentColor"></path></g></symbol>
    <symbol id="ic-check" viewBox="0 0 24 24"><title>check-circle</title><g fill="none"><path d="M9 12l2 2 4-4m6 2a9 9 0 1 1-18 0 9 9 0 0 1 18 0z" stroke="currentColor" stroke-width="2" stroke-linecap="round" stroke-linejoin="round"></path></g></symbol>
    <symbol id="ic-down" viewBox="0 0 20 20"><title>chevron-down</title><g fill="none"><path fill-rule="evenodd" clip-rule="evenodd" d="M5.293 7.293a1 1 0 0 1 1.414 0L10 10.586l3.293-3.293a1 1 0 1 1 1.414 1.414l-4 4a1 1 0 0 1-1.414 0l-4-4a1 1 0 0 1 0-1.414z" fill="currentColor"></path></g></symbol>
    <symbol id="ic-img" viewBox="0 0 24 24"><title>image</title><g stroke-linejoin="round" stroke-linecap="round" stroke-width="1.5" fill="none" stroke="currentColor"><circle cx="8" cy="9" r="1"></circle><path d="M3 4h18v16H3z"></path><path d="M4.5 20l9.5-9.5 7 7"></path></g></symbol>
    <symbol id="ic-edit" viewBox="0 0 24 24"><title>pencil-alt</title><g fill="none"><path d="M11 5H6a2 2 0 0 0-2 2v11a2 2 0 0 0 2 2h11a2 2 0 0 0 2-2v-5m-1.414-9.414a2 2 0 1 1 2.828 2.828L11.828 15H9v-2.828l8.586-8.586z" stroke="currentColor" stroke-width="2" stroke-linecap="round" stroke-linejoin="round"></path></g></symbol>
    <symbol id="ic-fav" viewBox="0 0 24 24"><title>heart</title><g fill="none"><path d="M4.318 6.318a4.5 4.5 0 0 0 0 6.364L12 20.364l7.682-7.682a4.5 4.5 0 0 0-6.364-6.364L12 7.636l-1.318-1.318a4.5 4.5 0 0 0-6.364 0z" stroke="currentColor" stroke-width="2" stroke-linecap="round" stroke-linejoin="round"></path></g></symbol>
    <symbol id="ic-wlater" viewBox="0 0 24 24"><title>clock</title><g fill="none"><path d="M12 8v4l3 3m6-3a9 9 0 1 1-18 0 9 9 0 0 1 18 0z" stroke="currentColor" stroke-width="2" stroke-linecap="round" stroke-linejoin="round"></path></g></symbol>
    <symbol id="ic-download" viewBox="0 0 24 24"><title>download</title><g fill="none"><path d="M4 16v1a3 3 0 0 0 3 3h10a3 3 0 0 0 3-3v-1m-4-4l-4 4m0 0l-4-4m4 4V4" stroke="currentColor" stroke-width="2" stroke-linecap="round" stroke-linejoin="round"></path></g></symbol>
    <symbol id="ic-thup" viewBox="0 0 24 24"><title>thumb-up</title><g fill="none"><path d="M14 10h4.764a2 2 0 0 1 1.789 2.894l-3.5 7A2 2 0 0 1 15.263 21h-4.017c-.163 0-.326-.02-.485-.06L7 20m7-10V5a2 2 0 0 0-2-2h-.095c-.5 0-.905.405-.905.905 0 .714-.211 1.412-.608 2.006L7 11v9m7-10h-2M7 20H5a2 2 0 0 1-2-2v-6a2 2 0 0 1 2-2h2.5" stroke="currentColor" stroke-width="2" stroke-linecap="round" stroke-linejoin="round"></path></g></symbol>
    <symbol id="ic-thdown" viewBox="0 0 24 24"><title>thumb-down</title><g fill="none"><path d="M10 14H5.236a2 2 0 0 1-1.789-2.894l3.5-7A2 2 0 0 1 8.736 3h4.018a2 2 0 0 1 .485.06l3.76.94m-7 10v5a2 2 0 0 0 2 2h.096c.5 0 .905-.405.905-.904 0-.715.211-1.413.608-2.008L17 13V4m-7 10h2m5-10h2a2 2 0 0 1 2 2v6a2 2 0 0 1-2 2h-2.5" stroke="currentColor" stroke-width="2" stroke-linecap="round" stroke-linejoin="round"></path></g></symbol>
</svg>