<svg xmlns="http://www.w3.org/2000/svg" width="80" height="80" viewBox="0 0 80 80"><g transform="translate(588 -1294)"><rect width="80" height="80" transform="translate(-588 1294)" fill="#f2eff1"/><path d="M23.665,39.974c.026.026-4.277-4.993-4.925-8.186s6.013-6.731,1.412-11.277S1.838,14.036,2,10.268,9.01,0,9.01,0,2.555,10.139,15,11.935a155.4,155.4,0,0,0,17.335,0C43.25,10.833,38.32,0,38.32,0s6.849,6.5,7.011,10.268-13.55,5.7-18.152,10.243,2.06,8.084,1.412,11.277S23.691,40,23.691,40Z" transform="translate(-571.998 1314)" fill="#ddd"/></g></svg>