<svg xmlns="http://www.w3.org/2000/svg" width="284" height="415" viewBox="0 0 284 415"><g transform="translate(970 -1257)"><rect width="284" height="415" transform="translate(-970 1257)" fill="#f2eff1"/><path d="M54,95.938C54.06,96,43.733,83.954,42.178,76.291S56.61,60.138,45.566,49.226,1.613,33.685,2,24.643,18.827,0,18.827,0,3.335,24.333,33.2,28.643c8.221.817,34.256.731,41.6,0C101,26,89.17,0,89.17,0S105.607,15.6,106,24.643,73.475,38.314,62.431,49.226s4.944,19.4,3.388,27.066S54.06,96,54.06,96Z" transform="translate(-881.998 1417)" fill="#ddd"/></g></svg>