<svg xmlns="http://www.w3.org/2000/svg" width="284" height="160" viewBox="0 0 284 160"><g transform="translate(882 -624)"><rect width="284" height="160" transform="translate(-882 624)" fill="#f2eff1"/><path d="M36.665,63.959c.041.041-6.843-7.989-7.881-13.1s9.622-10.769,2.259-18.044S1.741,22.457,2,16.429,13.217,0,13.217,0,2.889,16.222,22.8,19.1a248.644,248.644,0,0,0,27.737,0C68,17.333,60.113,0,60.113,0S71.071,10.4,71.33,16.429,49.65,25.543,42.287,32.817s3.3,12.935,2.259,18.044S36.706,64,36.706,64Z" transform="translate(-776.998 672)" fill="#ddd"/></g></svg>